<?xml version="1.0" standalone="no"?>
<!DOCTYPE svg PUBLIC "-//W3C//DTD SVG 20010904//EN"
 "http://www.w3.org/TR/2001/REC-SVG-20010904/DTD/svg10.dtd">
<svg version="1.0" xmlns="http://www.w3.org/2000/svg"
 width="1890.000000pt" height="1417.000000pt" viewBox="0 0 1890.000000 1417.000000"
 preserveAspectRatio="xMidYMid meet">

<g transform="translate(0.000000,1417.000000) scale(0.100000,-0.100000)"
fill="#000000" stroke="none">
<path d="M9485 12654 c-1039 -31 -1899 -170 -2741 -445 -1422 -463 -2636
-1312 -3600 -2519 -249 -311 -569 -941 -734 -1440 -430 -1311 -279 -2611 457
-3913 153 -271 224 -375 447 -651 240 -297 591 -663 866 -901 1145 -992 2577
-1587 4330 -1799 447 -54 723 -71 1150 -71 392 1 587 10 970 46 1529 143 2906
596 3990 1314 1018 674 1761 1540 2232 2604 387 875 511 1751 372 2636 -100
636 -367 1326 -762 1970 -99 162 -291 417 -472 629 -126 147 -433 460 -595
605 -1181 1063 -2799 1722 -4640 1890 -385 35 -936 55 -1270 45z m620 -194
c766 -40 1394 -157 2085 -387 114 -38 274 -98 355 -133 11 -5 70 -30 130 -56
202 -86 523 -251 694 -357 202 -124 282 -175 331 -212 30 -22 73 -52 95 -68
77 -52 315 -239 359 -281 12 -11 48 -43 80 -71 83 -72 338 -326 420 -420 114
-129 120 -135 205 -238 45 -53 81 -101 81 -106 0 -5 7 -15 16 -22 9 -8 27 -30
39 -50 13 -20 29 -42 37 -50 7 -8 18 -22 23 -31 6 -9 46 -70 89 -135 96 -143
104 -156 197 -313 41 -69 78 -133 84 -142 38 -63 132 -240 183 -343 125 -253
210 -460 315 -765 38 -111 110 -393 142 -556 101 -509 119 -1000 55 -1503 -17
-132 -47 -320 -64 -396 -33 -151 -54 -234 -77 -314 -11 -34 -21 -73 -23 -85
-9 -43 -117 -357 -165 -477 -115 -287 -264 -603 -380 -802 -28 -49 -51 -90
-51 -92 0 -2 -18 -31 -40 -64 -22 -33 -40 -64 -40 -70 0 -5 -3 -11 -7 -13 -5
-1 -39 -49 -78 -106 -38 -57 -77 -113 -85 -125 -20 -30 -187 -247 -208 -272
-9 -11 -30 -36 -45 -55 -151 -189 -425 -470 -627 -644 -63 -54 -128 -110 -145
-125 -16 -14 -39 -33 -51 -41 -12 -8 -66 -49 -119 -90 -53 -41 -113 -86 -133
-99 -21 -13 -39 -27 -42 -30 -3 -4 -72 -50 -155 -104 -82 -53 -155 -101 -161
-106 -6 -5 -30 -19 -54 -31 -23 -12 -70 -38 -103 -59 -76 -46 -405 -221 -427
-226 -3 -1 -36 -16 -75 -34 -327 -152 -775 -310 -1149 -406 -594 -152 -1094
-222 -1750 -245 -461 -16 -911 14 -1431 96 -427 67 -1115 263 -1425 406 -25
11 -49 21 -55 23 -38 8 -390 177 -510 244 -33 19 -96 54 -140 80 -44 25 -92
53 -107 61 -103 57 -478 312 -583 397 -5 5 -37 30 -70 55 -33 26 -69 55 -80
65 -11 10 -40 34 -65 54 -77 61 -279 248 -420 389 -197 197 -336 353 -517 581
-319 399 -403 528 -571 869 -128 260 -259 566 -309 725 -14 44 -30 86 -35 93
-6 6 -8 12 -4 12 3 0 -1 17 -9 37 -30 78 -97 330 -135 507 -166 769 -136 1572
85 2331 109 371 278 780 453 1093 20 37 44 81 52 97 8 17 17 32 21 35 3 3 23
37 44 75 45 82 168 268 269 409 39 54 78 109 86 121 20 30 208 262 239 295 13
14 44 50 70 80 89 106 309 333 406 420 22 19 81 71 130 115 50 44 137 118 195
165 58 46 107 87 110 90 3 3 12 10 22 15 9 6 81 56 160 113 348 250 812 506
1178 652 662 263 1158 391 1945 500 381 52 838 71 1240 50z"/>
<path d="M10760 10380 c-1561 -4 -2176 -9 -2205 -17 -22 -6 -75 -21 -117 -32
-73 -20 -185 -59 -293 -103 -68 -27 -273 -135 -310 -162 -16 -12 -37 -25 -45
-28 -29 -11 -209 -169 -280 -245 -79 -86 -202 -262 -193 -277 4 -5 174 -7 442
-3 l436 5 71 41 c135 79 349 138 578 160 74 7 770 11 2116 11 l2006 0 64 60
c36 33 83 77 104 98 22 20 53 47 69 59 16 12 68 58 116 101 47 43 140 127 206
186 66 60 131 119 145 132 l25 24 -385 -2 c-212 -2 -1359 -5 -2550 -8z"/>
<path d="M7056 9322 c39 -37 91 -85 115 -107 24 -21 96 -87 160 -145 117 -107
178 -162 240 -215 36 -31 521 -470 679 -615 52 -48 122 -111 155 -140 33 -29
98 -90 145 -134 47 -45 153 -142 235 -216 83 -74 155 -140 160 -146 6 -6 43
-39 84 -75 41 -35 90 -80 110 -99 36 -36 222 -204 298 -270 41 -36 173 -155
318 -289 44 -41 81 -77 83 -81 3 -8 -135 -137 -283 -265 -39 -33 -97 -85 -130
-116 -60 -56 -317 -287 -455 -409 -40 -36 -89 -81 -109 -100 -20 -19 -63 -57
-95 -85 -68 -58 -132 -115 -231 -207 -38 -36 -158 -143 -265 -238 -107 -95
-204 -182 -215 -192 -59 -55 -130 -119 -185 -168 -35 -30 -92 -82 -127 -114
-35 -33 -81 -74 -101 -90 -20 -17 -43 -38 -52 -46 -9 -8 -76 -69 -150 -134
-136 -121 -172 -153 -245 -223 -22 -21 -56 -50 -75 -65 -19 -15 -64 -54 -100
-87 l-64 -61 1874 0 c1031 0 2291 -3 2800 -7 l924 -6 -34 30 c-19 17 -84 69
-145 116 -60 48 -117 93 -125 100 -8 8 -31 25 -50 38 -19 13 -41 32 -48 42 -7
9 -18 17 -24 17 -6 0 -21 11 -34 25 l-23 25 -1941 0 -1941 0 -14 34 c-8 19
-20 56 -27 81 -11 41 -11 48 3 56 18 9 93 74 151 129 20 19 58 53 84 75 26 22
71 60 99 85 175 155 211 187 226 201 9 9 24 21 32 25 8 5 48 39 89 75 82 75
178 160 217 194 14 12 87 76 161 141 75 66 144 126 154 134 46 38 92 79 137
120 27 25 55 50 62 55 15 12 170 148 177 155 3 3 23 20 45 39 22 19 72 62 110
96 39 35 83 73 99 86 15 13 48 43 73 67 24 23 46 42 49 42 3 0 44 35 92 78 88
79 130 116 168 149 11 10 42 37 69 60 l48 43 -24 23 c-13 13 -78 70 -144 127
-66 58 -186 164 -266 235 -81 72 -168 148 -194 170 -27 22 -114 99 -195 170
-266 235 -396 349 -450 395 -29 25 -65 56 -80 70 -15 14 -43 38 -61 54 -19 17
-72 64 -119 105 -47 42 -112 99 -144 126 -33 28 -119 102 -191 165 -380 331
-495 435 -495 444 0 6 12 40 26 77 l26 66 246 6 c136 4 589 7 1008 7 418 0
1193 3 1722 7 l960 6 49 46 c27 25 75 69 107 96 32 28 84 73 115 101 31 29 70
64 86 78 l30 25 -2760 0 -2760 0 71 -67z"/>
<path d="M7126 9061 c-12 -19 -47 -210 -61 -331 -23 -196 -20 -401 10 -575 94
-558 286 -948 611 -1240 120 -109 171 -144 317 -220 290 -151 617 -215 1096
-215 l216 0 70 65 c39 35 87 79 108 97 21 18 66 59 99 90 l62 57 -49 43 c-26
24 -62 57 -80 73 -98 92 -155 144 -190 173 l-39 32 -191 0 c-385 0 -701 95
-960 290 -26 20 -155 149 -179 179 -91 117 -180 304 -220 466 -38 150 -46 216
-46 371 l0 142 -42 37 c-57 50 -255 234 -282 261 -34 35 -236 214 -241 214 -2
0 -6 -4 -9 -9z"/>
<path d="M10350 7089 c31 -31 157 -140 190 -165 13 -10 38 -33 55 -50 16 -17
42 -39 58 -49 15 -9 27 -23 27 -29 0 -6 -76 -79 -169 -161 l-169 -150 126 -6
c351 -17 631 -120 863 -316 125 -106 186 -183 272 -343 65 -121 103 -227 132
-365 54 -266 54 -522 0 -737 l-7 -28 194 0 195 0 97 -76 c53 -42 98 -75 100
-73 4 6 44 150 51 184 3 17 8 41 11 55 63 297 51 673 -33 1019 -59 242 -175
491 -307 656 -58 73 -213 223 -276 266 -19 13 -37 26 -40 29 -21 22 -245 145
-306 168 -16 6 -54 20 -84 32 -223 87 -517 141 -850 156 l-155 7 25 -24z"/>
<path d="M11185 4021 c-180 -86 -327 -129 -525 -152 -80 -9 -579 -11 -2123 -7
l-2018 5 -47 -41 c-25 -22 -65 -59 -88 -81 -23 -22 -63 -58 -89 -80 -26 -22
-100 -87 -164 -145 -64 -58 -134 -121 -156 -141 -22 -20 -70 -63 -107 -97
l-67 -62 2378 0 c2584 0 2541 -1 2818 55 276 56 563 184 739 330 52 43 186
175 220 216 46 57 104 139 104 149 0 5 4 10 8 10 5 0 18 18 31 40 l22 40 -428
0 -428 0 -80 -39z"/>
</g>
</svg>
